<?xml version="1.0" encoding="utf-8"?>
<!-- Generator: Adobe Illustrator 25.0.1, SVG Export Plug-In . SVG Version: 6.00 Build 0)  -->
<svg version="1.1" id="Layer_1" xmlns="http://www.w3.org/2000/svg" xmlns:xlink="http://www.w3.org/1999/xlink" x="0px" y="0px"
	 viewBox="0 0 624.7 177.1" style="enable-background:new 0 0 624.7 177.1;" xml:space="preserve">
<style type="text/css">
	.st0{fill:#000001;}
</style>
<g id="a">
</g>
<g id="b">
	<g id="c">
		<g>
			<path class="st0" d="M623,122.5c-1.8-1.8-2.9-4.2-4.4-6.2c-2.3-3-4.6-5.7-6.7-8.9c-8.2-11.4-7.6-15-22.8-17.5
				c-0.6-0.1-0.8,0.1-0.7,0.4c-0.4-0.1-0.8-0.3-1.2-0.4c-2.4-1.1-4.7-2.3-7.2-3.1c-2.9-1.1-6.1-1.4-9-2.4c-0.8-0.4-1.6-0.8-2.4-1.2
				c-6.1-6.8-13-13-20.3-18.4c2.4-0.5,4.8-1.3,7.1-2c2.1,0.7,4.2,0.6,6.4,1.4c5.3,2.1,9.8,5.6,14.2,9.2c4.5,3.2,10.2,3.1,15.5,3.2
				c0.2,0,0.5,0,0.8,0c0.3,0,0.6,0,0.9,0c1.1,0,2.2-0.1,2.3-0.8c-0.1-0.6-0.8-0.9-1.4-0.9c-3.5-1-6.7-3.2-9.8-5.2
				c2.5,1.5,5.1,3,7.9,3.7c-3.4-2.8-7.2-4.9-11-7.1c-2.1-1.5-4.1-3.2-6.3-4.6c-4.5-2.9-10.3-5.2-15.2-2c-2.9,1.5-6,2.1-9.2,2.7
				c-1.3,0.2-2.6,0.6-3.9,1c-4.3-3.1-8.7-5.8-13.4-8.4c-7.8-4.5-16.1-7.8-24.6-10.5c0.3-0.1,0.7-0.2,1-0.3c4.3-2,8.4-4.1,13-5.4
				c9.2,0.6,16.5,7.9,25.6,8.8c0.8,0.1,1.6,0.2,2.4,0.2c5,0,9.8-2,14.2-4.1c0.3-0.2,1-0.2,1.2-0.6c0.1-0.2,0-0.4-0.2-0.5
				c-2.1-0.3-4.3,0.4-6.4,0.4c0.2,0,0.3-0.1,0.5-0.1c0.8-0.1,1.7-0.2,2.6-0.4c-2.2-0.5-4.6-0.8-6.9-1.2c-5.1-1.6-10.1-3.5-15-5.8
				c-6.9-3.8-14.1-2.4-20.5,1.8c-0.4,0.2-0.8,0.6-1.1,1c-4.6,1.8-8.2,4.5-12.5,5.6c-1-0.3-2-0.6-3.1-0.9c-0.9-1.2-2-2.3-3.2-3.3
				c-5.8-4.2-14-5.3-20.5-2.2c-10.5-1.3-21.2,0.2-31.8,1.6c3.8-1.7,7.3-4.3,10.9-7.8c3.8-1.7,8.1-2.9,12.3-2.8c4.2,0,8.2,2,12.4,2.2
				c2.7,0.2,5.4-0.2,8.1-0.6c4.1-0.5,8.4-0.7,12.4-1.9c1-0.2,2-0.7,3.1-0.8c1.1-0.2,2.4-0.2,3.3-1c0.2-0.2,0.2-0.5,0.1-0.7
				c-0.8-0.7-1.9-0.1-2.7,0.1c-4.1,0.7-8-0.4-11.9-1.5c-6-0.7-11.9-1.8-17.9-2.7c-5.7-0.7-12.3,0.5-16.5,4.6c-1.5,1.4-3,2.9-4.7,4
				c-0.3,0.2-0.9,0.5-0.9,0.9c-3.3,2-6.1,4.6-9.2,6.7c-1.9,1-4,1.6-6.1,2c-2.6,0.2-5.1,0.3-7.7,0.4c-1.8-0.9-3.6-1.6-5.6-1.9
				c-4.3-1-9.7-0.9-12.9,2.4c-2.7,0.1-5.5,0.3-8.2,0.5c-0.4,0-0.7,0.1-1.1,0.1c0.3-0.3,0.6-0.7,1-1c3.9-2.9,7.4-6.3,11.1-9.5
				c3.9-2.8,8.6-3.9,13.3-4.6c2.2-0.4,4.5-0.5,6.8-0.6c3.5-0.4,6.9-1.8,9.9-3.7c1.5-0.8,2.9-1.9,4.5-2.6c0.5-0.2,1.1-0.8,1.1-1.4
				l0.5-0.1c0,0,0,0,0,0c-0.2-0.1-0.4-0.1-0.6-0.2c-2.9-0.8-6.1-1.6-9.1-1.5c-4.4,0.1-8.6,1.5-12.8,2.8c-3.5,1-7,2.4-9.9,4.6
				c-3.7,3.1-7.1,6.7-10.2,10.3c-0.4,0.4-0.5,0.8-0.5,1.1c-1.3,1.1-2.6,2.5-4,3.4c-1.6,1.2-3.4,2.2-5,3.3c-4.1,0.4-8.2,1-12.2,1.3
				c4-1.8,8.4-4.4,9-9.1c0.3-1.8,0-3.7-0.1-5.5c0.2,0,0.5,0.1,0.7,0.1c9.2-1.5,8.7-4.8,12.9-11.7c-3.3,1.6-4.3,5.5-6.9,7.8
				c-1.7,1.7-4.2,3.4-6.7,3.1c-0.1-1.8-0.1-3.5,0.6-5.2c1.3-3,3.3-6.2,6.4-7.7c2.6-0.8,5.3-0.4,7.9-0.2c-3.5,1.4-6.5,3.7-9.3,6.2
				c-2,1.7-4.3,3-5.6,5.3c4.4,0.2,7.7-3.3,10-6.6c1.4-1.9,3.4-3.5,5.8-3.9c0.7-0.1,1.3-0.3,2-0.4c0.6,0,0.7-0.5,0.3-0.8
				c-1.9-0.9-4.3-0.8-6.4-1c-4.2,0-8.9,0.8-11.7,4.3c-6.1,8,2.6,20.7-14,25.7c-0.8,0-1.7,0.1-2.5,0.1c-7.3-0.1-14.5-0.3-21.8-0.7
				c-5.6-0.3-11.3-1.1-16.5-3.1c-0.2-0.1-0.4-0.3-0.6-0.4c-7.1-5.3-16.1-14.7-15.7-24.2c0.1-2.7,0.6-5.3,1.6-7.8
				c0.6-1.6,1.4-3.4,0.9-5.1c-0.6-2.4-4.2-3.1-5.4-0.7c-0.9,1.4-1.5,3-1.8,4.7c-1,4.6-0.8,9.2,0.4,13.6c0.8,4.3,2.7,8.5,5.2,12
				c1,1.5,2.2,2.7,3.5,3.8c1.6,1.6,3.5,3.1,5.4,4.3c1.4,0.8,2.8,2.2,4.6,2.3c2.8,1.9,6,3.7,9.5,3.5c8.4,3.1,17.3,4.6,26.3,4
				c4.2-0.2,8.3-0.5,12.5-0.8c-0.4,1.5-0.1,3.2,0.4,4.6c0.7,2.3,2.6,4.1,4.7,5.2c1.8,2.2,2.6,5,3.4,7.7c1.2,3.1,3.9,5.5,6.6,7.3
				c2.7,1.5,5.6,2.6,8.1,4.4c-0.2-0.3-0.5-0.6-0.7-0.9c0.7,0.5,1.2,1.1,1.8,1.7c0.2,0.1,0.3,0.2,0.5,0.2c0.4,0,0.5-0.5,0.1-0.9
				c-0.9-0.9-1.2-2.3-1.8-3.4c-1.3-2.7-2.2-5.7-4.2-8c-2.8-3-6-6-10-7.3c-0.8-0.6-1.7-1.1-2.5-1.5c-0.5-0.2-1.3-0.8-1.8-0.3
				c-2.7-2-2.6-5.6-2.9-8.7c0.4,0,0.8,0,1.2-0.1c1.7,1.2,3.7,2.2,5.5,3.1c4,1.7,8.5,1.5,12.4,3.4c3.4,1.6,7,3.8,9.6,6.6
				c2.7,3.2,4.7,7,8.1,9.7c4.6,3.8,10.5,6,15.8,8.6l0,0c0.2,0,0.3,0,0.4,0c1.1,0,0.8-1.2-0.2-1.6c-5.9-14.1-18.8-26.2-34.7-26.6
				c-1.6,0.1-3.1,0.4-4.7,0c-1.7-0.2-3.4,0.1-5.1-0.4c-1.9-0.5-3.6-1.6-5.2-2.8c1.5-0.1,3-0.1,4.5-0.1c8.4-0.1,16.9-0.3,25.2-1.9
				c3.9-0.7,7.8-1.4,11.7-1.9c1.8,1.3,3.4,2.9,4.9,4.6c4.9,6.4,11.9,11.5,20.1,12.5c1,0.1,2,0.2,2.9,0.2c0.5,0,1,0,1.5,0
				c0.7,2.1,1.5,4.2,2.8,6c2.4,3.7,6.2,6.1,9.5,8.9c3.3,3,7.8,3.5,12.1,3.6c0.7,0,1.3,0,2,0c2.3,0,4.6-0.1,6.6-1.4
				c1-0.7,0.1-1.3-0.8-1.4c-4.8-4.9-11.7-7.4-16.3-12.8c-0.3-0.3-0.6-0.6-1-0.9c3.3,1.2,7,1.2,10.5,1.7c0.1,0,0.3,0.1,0.5,0.1
				c1,0,2.6-0.6,1.7-1.6c-3.8-2.3-7.6-4.6-11.4-6.8c-3.8-2.2-7.7-4.3-11.9-5.6c-1-0.3-2.1-0.4-3.2-0.5c-0.4-0.4-0.9-0.8-1.3-1.2
				c-0.7-0.6-1.4-1.3-2.4-1.3c-2.4-2.5-5.5-4.1-8.8-5.2c1.2,0,2.3,0.1,3.5,0.1c13.5,0,27,1.1,40.2,3.8c2.1,0.3,4.2,0.8,6.2,1.3
				c0.6,2.3,0.9,4.7,1.2,7.1c0.1,1.6,0.9,3.3,0.5,4.9c-0.8,3.4-2.4,6.7-2.5,10.2c0.3,4.6,3.6,8.6,7.2,11.1c3.2,2.1,7.3,1.9,10.6,4.1
				c0.3,0.1,0.6,0.2,0.9,0.2c0.8,0,1.6-0.3,1.7-1.1c-0.1-0.2-0.3-0.4-0.5-0.5c-1.5-0.8-2.8-2-4.1-3.2c-2.5-3.2-3.1-7.3-4-11.2
				c-1.3-4.4-2.9-8.9-6-12.5c-0.1-2.7-0.5-5.5-1.3-8.1c6.9,2.1,13.4,5.2,19.9,8.4c1.4,2.7,2.1,5.8,2.8,8.7c1.1,5.2,1,10.8-0.1,16
				c-0.2,3.5-0.9,7-1.4,10.5c-0.5,7,0.4,11.1,5.1,16.4c1.6,2.1,3.3,4.2,5.1,6.1c0.7,0.7,1.5,1.5,2.5,1.6h0c1.5,0-0.1-3.2-0.2-4.1
				c2.3-8.2-2-16.1-4.8-23.7c-1.7-5.2-2.5-10.5-3.5-15.8c0-1.3-0.2-2.5-0.5-3.8c-0.3-2.6-0.7-5.2-1.4-7.8c-0.1-0.3-0.2-0.7-0.4-1.1
				c0.8,0.7,1.6,1.3,2.5,1.9c2.6,1.5,5.5,2.1,8.4,2.1c2.6,1.3,5.2,2.7,7.8,4.2c1.3,2.9,2,6.3,1.8,9.5c-0.8,3.9-0.7,7.8,0.6,11.6
				c-0.3,0-0.3,0.3-0.3,0.6c0.6,3.1,1,6.3,2.4,9.1c1.7,3.9,2.1,8.1,2,12.4c-0.6,5.8-0.8,11.7,1.2,17.3c0.9,2.7,2,5.3,2.7,8.2
				c0.3,1.4,0.5,3,1,4.3c0.3,0.5,1.2,1.1,1.9,1.1c0.4,0,0.7-0.2,0.8-0.7c-0.3-2.6-0.6-5.2-0.8-7.8c-0.5-2.7,0.9-5.1,1.8-7.5
				c0.9-2.6,1.2-5.5,1.3-8.3c-0.8-9.5-5.8-22.2-13.2-28.4c-0.9-5.1,0.2-10.4,0-15.6c-0.3-1.8-0.9-3.5-1.8-5c1.3,0.8,2.5,1.6,3.7,2.4
				c9.6,7.4,15.9,18.1,22.3,28.2c0.1,2.6,0.6,5.1,0.9,7.7c0,1.9,0,3.8-0.1,5.6c-1.2,5.3-2.4,10.6-2.8,16c-0.3,2.9,0.3,5.7,0.2,8.5
				c0,4.6,1,9,2.8,13.2c1,2.5,2.2,5,3.6,7.3c0.7,1.1,1.3,2.5,2.5,3c0.2,0.1,0.4,0.1,0.6,0.1c1.2,0,0-2-0.3-2.7
				c0.6-2.9,1.3-5.8,1.1-8.8c-0.4-3.9-1.2-7.8-0.5-11.7c0.9-6.6,3.4-13.2,1.6-20c-0.5-3.1-1.8-5.8-3.3-8.5c1.4,2.3,2.9,4.6,4.3,7
				c1.4,4.8,3.7,9.3,5.7,13.9c1.4,4.7,2,9.5,3.6,14.1c2.3,6.2,4.6,12.3,7.3,18.3c1.2,2.7,2.2,5.4,2.9,8.3c0.3,0.9,0.5,2,1.2,2.6
				c0.5,0.4,1.1,0.7,1.6,0.7c0.6,0,1.1-0.4,0.9-1.6c-0.4-2.2,0-3.7,0.2-5.9c0.1-2.4-0.3-4.7-0.7-7c-0.4-5.5,0.2-11.1-0.6-16.6
				c-1.2-5.8-3-11.7-6.3-16.8c-1.7-2.6-8.1-9.6-12.7-12.8c-3-6.3-6.4-12.4-10.4-18.2c-2.9-4.2-6-8.2-9.3-12.1
				c3.1,1.5,6.5,2.5,9.7,3.6c2.4,0.7,4.7,1.6,7,2.5c1.1,0.9,2.1,1.9,3.1,2.9c2.7,4.2,5,8.7,8.6,12.3c3.7,5.2,9.4,8.1,14.6,11.4
				c3.6,2.2,6.7,5.3,10.4,7.2c0.2,0.1,0.4,0.1,0.6,0.1C625.6,124.9,623.6,123,623,122.5L623,122.5z M581.8,68.1
				c-5.8-3.4-12.2-6.5-19-7.2c-0.1,0-0.3,0-0.4,0c-0.8,0-1.6,0-2.3,0.1C568.1,58.1,575.5,63.9,581.8,68.1L581.8,68.1z M573.5,65.2
				c6.3,3,12.2,6.7,18.5,9.7c-1.7,0.1-3.2,0.2-5,0.1c-15,0-16-11.3-28.9-12.9C563.4,61.9,568.7,63.2,573.5,65.2L573.5,65.2z
				 M560.8,43.9c-3,1.4-6,3.2-9.4,3.1c-4.2-0.5-8.3-1.7-12.1-3.8c-4.1-2.6-8.7-5-13.7-5.3c1-0.2,1.9-0.4,2.9-0.4
				c3.8,0,7.5,1.7,11.1,2.9C546.5,42.3,553.6,44.9,560.8,43.9L560.8,43.9z M529.9,34.6c7.6,0,14.3,4.9,21,8.1
				c-7.5-2.5-15.1-5.9-23-5.9c-1.8,0-3.6,0.2-5.4,0.6C525,36.4,527.3,35.1,529.9,34.6L529.9,34.6z M501.8,27.2
				c-4.9,1.1-9.7,2.3-14.7,2.4l0.1,0c-2.5,0-4.9-0.8-7.2-1.4c-3-0.8-6.2-1.3-9.4-1.3c-1.4,0-2.7,0.1-4.1,0.2
				c6.9-1.2,13.9-1,20.9-1.2C492.2,25.6,497,26.9,501.8,27.2L501.8,27.2z M475.1,22.7c3.2,0,6.6,0.6,10.1,1.5
				c-8.6-0.6-17.5,0.3-25.2,4.3C464.7,24.3,469.7,22.7,475.1,22.7z M407.9,68.6c2.1,2.3,3.2,5.1,4.3,8c-2.7-2-5.6-4.1-7.1-7.2
				c-1-2.3-1.6-4.7-3.2-6.7C404.4,64.1,406.1,66.4,407.9,68.6L407.9,68.6z M397.1,60.2c3.3,1.6,4.2,5.4,5.8,8.3
				c1.3,2.4,3.5,4.3,5.5,6.1c-4-2.2-8.4-5-10.4-9.3c-0.7-1.8-0.7-3.8-1.7-5.5C396.6,60,396.8,60.1,397.1,60.2z M432.3,73.9
				c-5.9-4.4-9.1-11.4-15-15.8c4.4,2.5,9,4.9,13,8c3.6,3.2,6,7.4,9.3,10.9C437.1,76.1,434.6,75.3,432.3,73.9L432.3,73.9z
				 M426.9,60.1c2.9,2.1,5.7,4.5,8.2,7.2c1.8,2.1,3.1,4.8,4.6,7.2c0,0-0.1-0.1-0.1-0.1c-0.3-0.4-0.6-0.8-1-1.2
				c-7.6-9.3-15.7-15.9-27.3-19.6C417.1,54,422.3,56.7,426.9,60.1z M436.1,24.1c-5.7,0.2-11.3,1.3-16.4,4.3c0.2-0.1,0.3-0.3,0.5-0.4
				c2.9-2.6,6.3-4.7,10.2-5.5c5.9-1.2,11.9-1.5,17.9-2.3C444.6,22.3,440.4,23.4,436.1,24.1z M421.1,25.6c3.1-2.3,6.4-4.3,10.1-5.5
				c2.4-1.1,4.9-1.4,7.5-1.4c1.8,0,3.5,0.2,5.3,0.4c-3.9,0.4-7.9-0.1-11.8,1.1c-4.8,1.6-9.1,4.5-13.1,7.3c-1.9,1.5-3.7,3.2-5.8,4.5
				C415.5,29.5,418.3,27.5,421.1,25.6L421.1,25.6z M416.5,40.7c0.8-0.5,1.7-1,2.7-1.4c2.9-1,6-0.3,8.7,1.1
				C424,40.5,420.3,40.5,416.5,40.7L416.5,40.7z M462.7,56.1c-1-0.4-3.3-0.4-3.9-0.6c-3.8-0.4-7.6-1.6-11.1-3.3l-0.1-0.1
				c0.5,0.1,1,0.3,1.5,0.4c1.5,0.3,3,0.3,4.5,0.2c0.7,0,1.3,0,2,0c2,0.2,4,0.3,6,0.5C462.1,54.2,462.4,55.1,462.7,56.1L462.7,56.1z
				 M462.4,61c-3.1-0.8-6.1-1.8-8.7-3.7c-1-0.8-2-1.6-3-2.4c0.4,0.1,0.7,0.3,1.1,0.4c3.6,0.6,7.4,1.4,11,1.6c0,0,0,0,0,0
				c0,0,0.1,0,0.1,0c0.5,1.7,0.9,3.3,1.5,5C463.8,61.5,463,61.3,462.4,61L462.4,61z M491.7,79.3c-13,0.4-19.9-6.3-25.1-17.6
				c-1.1-2.8-1.7-5.7-3.1-8.3c0.1,0,0.2,0,0.2,0c2.7,3,4.4,6.8,6.8,10c3.4,3.9,7.3,7.6,11.7,10.4c4.2,2.6,9.3,3.5,14.1,4.6
				C494.8,79,493.2,79.2,491.7,79.3L491.7,79.3z M492.2,76.7c-7.7-2.8-14.6-7.8-19.6-14.3c-2.5-2.8-5.2-5.5-7.2-8.8
				c0.3,0,0.6,0.1,0.8,0.1c4.2,3.5,6.5,8.7,10.8,12.2C482,69.6,487.3,72.6,492.2,76.7L492.2,76.7z M487.4,64.2
				C487.4,64.1,487.4,64.1,487.4,64.2C487.4,64.1,487.5,64.1,487.4,64.2C487.5,64.2,487.4,64.2,487.4,64.2L487.4,64.2z M470.6,54.4
				c4.5,1,8.1,3.8,11.9,6.5c-2.4-1-5-1.6-7.7-1.4c2.2,0.9,4.9,0.9,7.1,2.1c1.6,0.7,3,2,4.7,2.6c-2.4,0.2-4.9,0.1-7.3-0.4
				c-3.6-3.2-7.3-6.5-10.8-9.9C469.1,54.1,469.9,54.3,470.6,54.4L470.6,54.4z M460,49.5c-0.2,0.5,0.3,0.9,0.6,1.4
				c0,0.1,0.1,0.1,0.1,0.2c-0.4,0-0.8,0-1.2,0c-3.8,0.1-7.4,0.4-11.1-0.6c-1.4-0.4-2.7-0.9-4.1-1.4c-1.8-1.5-3.5-3.1-5.4-4.5
				c-0.1-0.1-0.3-0.3-0.4-0.4c4-0.4,8-0.7,12-0.7C454.1,44.6,457.4,46.7,460,49.5z M514.8,82.9c-0.5-0.2-1.1-0.5-1.6-0.7
				c-0.5-0.2-0.9-0.4-1.4-0.6c-7.5-3.1-7.9-9.9-6-16.8C507.1,71.5,509,78.6,514.8,82.9L514.8,82.9z M508.1,60.5
				c1.3,2.6,2.8,5.3,3.4,8.2c0.5,2.9,0.3,5.9,1.9,8.5C509.2,72.1,507.1,67.2,508.1,60.5L508.1,60.5z M559.3,134.8
				c-1.5-5.3-2.1-10.8-2.6-16.3c-0.1-2.6,0.6-5.1,0.3-7.7c-0.3-3-1.3-5.7-2.3-8.5c2,4.1,4,8.3,4.5,13
				C559.7,121.7,558.8,128.3,559.3,134.8L559.3,134.8z M560.8,115c-1.3-3.7-2.2-7.5-3.5-11.1c-1.4-3.8-3.2-7.4-4.6-11.1
				C558.6,101.7,561.5,103.5,560.8,115L560.8,115z M482.1,37.7c1.8-0.7,3.6-1.2,5.6-0.9c3.4,0.8,6.9,2.3,9.8,4.5
				c-3.9-1-7.7-1.9-11.6-2.8C484.6,38.2,483.4,38,482.1,37.7L482.1,37.7z M531.5,105.8c-1.6-3.7-2.2-7.8-1.8-11.8
				c0.1-2.5,0.2-5.2,1-7.6c0.3,4.6,1.8,8.9,3.4,13.1c1.2,5.4,3.7,10.3,5.2,15.6C536.4,112.3,533.1,109.6,531.5,105.8z M535.6,92.8
				c1,4.6,1,9.5,2.5,14c-1.5-4.1-3.8-7.9-4.4-12.3c-0.5-3.1-1.4-6.2-1.7-9.4c-0.1-2.2,0.1-4.4-0.2-6.5c0.4,2.3,0.7,4.6,1.2,6.9
				C533.8,87.9,535,90.2,535.6,92.8L535.6,92.8z M538.4,64.6c-3.4-0.6-6.2-2.5-8.6-4.7c0,0,0,0,0,0c0.1,0.1,0.3,0.1,0.4,0.2
				c3,1.6,6.1,3.1,9.3,4.6C539.1,64.7,538.7,64.7,538.4,64.6L538.4,64.6z M577,144.9c-0.6-2.9-1.5-5.8-1.6-8.8
				c0.5-4.6,0.5-9.3,1.5-13.8c0.7-2.5,0.6-5.1,0.8-7.7c0.4-2.2,0.6-4.5,0.6-6.7c3.3,8.4,2.1,17.9,0.4,26.5
				c-0.5,5.2-0.8,10.5,0.4,15.6c0.7,2.6,1.8,5.1,2.6,7.7C579.2,154,578,149.4,577,144.9L577,144.9z M583.8,126.7
				c-0.1,6.4-1.9,12.5-2.9,18.7c-0.3-2.9-0.3-5.8-0.1-8.8c0.5-16.8,4.7-11.5-1.9-29.3C583.2,112.8,584.6,119.8,583.8,126.7
				L583.8,126.7z M580,107.1C580,107,580,107,580,107.1c0,0,0.1,0.2,0.2,0.3C580.2,107.3,580.1,107.2,580,107.1z M591.5,126.7
				c1.3,2.3,2.4,4.8,3.5,7.3C593.9,131.5,592.3,129.4,591.5,126.7z M602.9,157.2c-1.1-3.2-3-6.1-4.1-9.3c-1.2-4.3-2-9-3.6-13.2
				c1.7,4.2,3.2,8.6,5.2,12.7c3.8,6.9,4.8,14.9,6.4,22.6C605,165.8,604.3,161.4,602.9,157.2L602.9,157.2z M597.8,124
				c6.9,10.8,9.4,22.3,8.7,35.1c-1.8-5.6-2.8-11.5-5.1-17c-1.2-2.5-2.5-5-3.7-7.4c-1.9-5.8-4.1-11.5-6.7-17.1
				C593.5,119.4,596,121.3,597.8,124L597.8,124z M600.5,107.1c-3.6-4.4-5.9-9.8-9.9-13.9c-0.4-0.4-0.8-0.8-1.2-1.1
				c1.5,0.6,3,1.3,4.4,1.9c3.7,2,5.8,5.6,8.4,8.8c0.7,1.6,1.4,3.3,2.6,4.7c1.8,2.2,3.8,4.2,5.7,6.3
				C607.1,111.8,603.2,110.3,600.5,107.1L600.5,107.1z M606.3,106.6c-1.4-2-2.2-4.4-3.8-6.3c-0.1-0.1-0.2-0.2-0.3-0.3
				c-1.9-3.7-4.3-5.7-7.7-7.3c-0.1-0.1-0.1-0.1-0.2-0.2c14.4,3.4,11.2,15,22,24.6C612.6,114,609.2,110.6,606.3,106.6z"/>
			<path class="st0" d="M484.5,63.9c0.2,0,0.4-0.1,0.5-0.3c0.1-0.2-0.2-0.2-0.3-0.2c-0.2,0-0.4,0.1-0.5,0.3
				C484.1,63.8,484.4,63.9,484.5,63.9z"/>
			<path class="st0" d="M140,64.6c-0.1,0-0.4,0-0.3,0.2c0.1,0.2,0.3,0.3,0.5,0.3c0.1,0,0.4,0,0.3-0.2
				C140.4,64.6,140.2,64.6,140,64.6z"/>
			<path class="st0" d="M303.1,7.3c-0.3-1.6-0.8-3.3-1.8-4.7c-1.2-2.4-4.8-1.7-5.4,0.7c-0.5,1.8,0.4,3.5,0.9,5.1
				c1,2.5,1.4,5.2,1.6,7.8c0.4,9.5-8.7,18.9-15.7,24.2c-0.2,0.1-0.4,0.3-0.6,0.4c-5.3,2-11,2.7-16.6,3.1c-7.3,0.4-14.5,0.6-21.8,0.7
				c-0.8,0-1.7,0-2.5-0.1c-16.6-5-8-17.6-14-25.7c-2.8-3.4-7.5-4.3-11.7-4.3c-2.1,0.2-4.4,0.1-6.4,1c-0.4,0.3-0.3,0.8,0.3,0.8
				c0.7,0.1,1.3,0.2,2,0.4c2.4,0.4,4.4,2,5.8,3.9c2.3,3.3,5.6,6.8,10,6.6c-1.3-2.4-3.6-3.7-5.6-5.3c-2.8-2.5-5.8-4.8-9.3-6.2
				c2.7-0.2,5.4-0.6,7.9,0.2c3,1.6,5,4.7,6.4,7.7c0.7,1.7,0.7,3.4,0.6,5.2c-2.5,0.4-5.1-1.3-6.7-3.1c-2.6-2.3-3.6-6.2-6.9-7.8
				c4.2,6.9,3.7,10.2,12.9,11.7c0.2,0,0.4-0.1,0.7-0.1c-0.1,1.9-0.4,3.7-0.1,5.5c0.6,4.7,5,7.4,9,9.2c-4.1-0.4-8.2-0.9-12.2-1.3
				c-1.6-1.2-3.4-2.1-5-3.3c-1.5-0.9-2.7-2.3-4-3.4c0-0.3-0.1-0.7-0.5-1.1c-3.1-3.7-6.5-7.3-10.2-10.3c-2.9-2.2-6.4-3.5-9.9-4.6
				c-4.2-1.4-8.4-2.7-12.8-2.8c-3.1,0-6.2,0.8-9.1,1.5c-0.2,0.1-0.4,0.1-0.6,0.2c0,0,0,0,0,0c0.2,0,0.3,0.1,0.5,0.1
				c0,0.6,0.6,1.2,1.1,1.4c1.6,0.7,3.1,1.8,4.5,2.6c3,1.9,6.4,3.2,9.9,3.7c2.3,0.1,4.5,0.1,6.8,0.6c4.7,0.7,9.4,1.8,13.3,4.6
				c3.7,3.2,7.2,6.6,11.1,9.5c0.3,0.3,0.6,0.7,0.9,1c-0.4,0-0.7-0.1-1.1-0.1c-2.7-0.2-5.5-0.4-8.2-0.5c-3.2-3.3-8.6-3.4-12.9-2.4
				c-2,0.4-3.8,1-5.6,1.9c-2.6-0.1-5.1-0.2-7.7-0.4c-2.1-0.4-4.2-1-6.1-2c-3.1-2.2-6-4.7-9.2-6.7c-0.1-0.4-0.6-0.7-0.9-0.9
				c-1.7-1.1-3.3-2.6-4.7-4c-4.2-4.1-10.8-5.3-16.5-4.6c-6,0.9-11.9,2-17.9,2.7c-3.9,1.1-7.8,2.2-11.9,1.5c-0.8-0.3-1.9-0.8-2.7-0.1
				c-0.2,0.2-0.2,0.5,0.1,0.7c0.9,0.8,2.2,0.8,3.3,1c1.1,0.1,2.1,0.6,3.1,0.8c4,1.2,8.2,1.4,12.4,1.9c2.7,0.4,5.4,0.8,8.1,0.6
				c4.2-0.3,8.2-2.2,12.4-2.2c4.2-0.1,8.5,1.1,12.3,2.8c3.6,3.5,7.1,6.1,10.9,7.8c-10.6-1.4-21.3-2.9-31.8-1.6
				c-6.5-3.1-14.7-2-20.5,2.2c-1.2,1-2.2,2.1-3.2,3.3c-1,0.3-2.1,0.6-3.1,0.9c-4.2-1.1-7.8-3.8-12.5-5.6c-0.3-0.4-0.8-0.7-1.1-1
				c-6.4-4.2-13.6-5.6-20.5-1.8c-4.9,2.2-9.9,4.2-15,5.8c-2.3,0.4-4.7,0.7-6.9,1.2c0.9,0.2,1.8,0.3,2.6,0.4c0.2,0,0.3,0.1,0.5,0.1
				c-2.1,0-4.3-0.7-6.4-0.4c-0.2,0.1-0.3,0.3-0.2,0.5c0.2,0.4,0.9,0.4,1.2,0.6c4.4,2.2,9.2,4.1,14.2,4.1c0.8,0,1.6-0.1,2.4-0.2
				c9.1-0.9,16.4-8.2,25.6-8.8c4.6,1.3,8.7,3.3,13,5.4c0.3,0.1,0.7,0.2,1,0.3c-8.5,2.7-16.8,6-24.6,10.5c-4.6,2.5-9.1,5.3-13.4,8.4
				c-1.3-0.4-2.6-0.8-3.9-1c-3.2-0.6-6.3-1.2-9.2-2.7c-4.9-3.2-10.7-0.9-15.2,2c-2.2,1.4-4.2,3.1-6.3,4.6c-3.8,2.1-7.6,4.3-11,7.1
				c2.8-0.7,5.4-2.2,7.9-3.7c-3.1,2-6.3,4.1-9.8,5.2c-0.6,0-1.2,0.3-1.4,0.9c0.1,0.7,1.2,0.8,2.3,0.8c0.3,0,0.6,0,0.9,0
				c0.3,0,0.6,0,0.8,0c5.3-0.1,11,0,15.5-3.2c4.4-3.6,8.9-7.1,14.2-9.2c2.2-0.7,4.3-0.7,6.4-1.4c2.3,0.7,4.7,1.4,7.1,2
				c-7.4,5.4-14.2,11.6-20.4,18.4c-0.8,0.4-1.6,0.9-2.4,1.2c-2.9,1-6.1,1.3-9,2.4C42.3,88.7,40,90,37.6,91c-0.4,0.1-0.8,0.3-1.2,0.4
				c0-0.3-0.2-0.6-0.7-0.4c-15.2,2.5-14.6,6.1-22.8,17.5c-2.1,3.2-4.4,5.9-6.7,8.9c-1.6,2-2.6,4.4-4.4,6.2c-0.7,0.5-2.6,2.5-1.2,2.5
				c0.1,0,0.3,0,0.6-0.1c3.8-2,6.8-5,10.4-7.2c5.2-3.4,10.9-6.3,14.6-11.4c3.6-3.6,5.9-8.1,8.6-12.3c1-1,2-1.9,3.1-2.8
				c2.3-0.9,4.6-1.8,7-2.5c3.2-1,6.6-2.1,9.7-3.5C51.2,90,48,94,45.2,98.2c-3.9,5.8-7.4,11.9-10.4,18.3c-4.6,3.2-11,10.2-12.7,12.8
				c-3.3,5-5.1,10.9-6.3,16.8c-0.9,5.5-0.2,11.1-0.6,16.6c-0.4,2.3-0.8,4.6-0.7,7c0.2,2.2,0.7,3.7,0.2,5.9c-0.2,1.1,0.2,1.6,0.9,1.6
				c0.5,0,1.1-0.3,1.6-0.7c0.7-0.6,1-1.7,1.2-2.6c0.7-2.9,1.6-5.6,2.9-8.3c2.6-6,5-12.1,7.3-18.3c1.6-4.6,2.2-9.4,3.6-14.1
				c2-4.6,4.3-9.1,5.7-14c1.4-2.3,2.8-4.6,4.2-6.9c-1.5,2.6-2.7,5.4-3.3,8.4c-1.8,6.7,0.7,13.4,1.6,20c0.6,3.9-0.1,7.8-0.5,11.7
				c-0.2,3,0.5,5.9,1.1,8.8c-0.4,0.7-1.5,2.7-0.3,2.7c0.1,0,0.3,0,0.6-0.1c1.2-0.5,1.8-1.9,2.5-3c1.4-2.3,2.6-4.8,3.6-7.3
				c1.8-4.2,2.8-8.6,2.8-13.2c0-2.9,0.5-5.7,0.2-8.5c-0.5-5.4-1.7-10.8-2.8-16c-0.1-1.9-0.1-3.7-0.1-5.6c0.3-2.6,0.8-5.1,0.9-7.7
				c6.4-10.1,12.8-20.8,22.3-28.2c1.2-0.8,2.5-1.6,3.7-2.4c-0.9,1.6-1.5,3.3-1.8,5c-0.2,5.2,0.9,10.5,0,15.6
				c-7.4,6.2-12.4,18.9-13.2,28.4c0.1,2.8,0.5,5.6,1.3,8.3c0.9,2.4,2.4,4.8,1.8,7.5c-0.2,2.6-0.4,5.2-0.8,7.8
				c0.1,0.5,0.4,0.7,0.8,0.7c0.7,0,1.7-0.6,1.9-1.1c0.6-1.4,0.7-2.9,1-4.3c0.6-2.8,1.8-5.4,2.7-8.2c2-5.6,1.8-11.5,1.2-17.3
				c0-4.3,0.3-8.5,2-12.4c1.4-2.8,1.9-6.1,2.4-9.1c0.1-0.2,0-0.6-0.3-0.6c1.3-3.8,1.4-7.7,0.6-11.6C74,77,74.7,73.7,76,70.8
				c2.5-1.5,5.1-2.8,7.8-4.2c2.9,0,5.7-0.6,8.4-2.1c0.9-0.6,1.7-1.2,2.4-1.9c-0.1,0.4-0.3,0.8-0.4,1.1c-0.7,2.6-1.1,5.2-1.4,7.8
				c-0.3,1.2-0.5,2.5-0.5,3.8c-1,5.3-1.8,10.7-3.5,15.8c-2.7,7.5-7,15.4-4.8,23.7c-0.1,0.9-1.7,4.1-0.2,4.1h0c1-0.1,1.8-0.9,2.5-1.6
				c1.8-1.9,3.5-3.9,5.1-6.1c4.8-5.3,5.7-9.5,5.1-16.4c-0.5-3.5-1.2-7-1.4-10.5c-1.1-5.2-1.3-10.7-0.1-16c0.7-2.9,1.4-6,2.8-8.7
				c6.5-3.2,13-6.2,19.9-8.4c-0.8,2.6-1.3,5.4-1.3,8.1c-3,3.6-4.6,8.1-6,12.5c-0.8,3.9-1.5,7.9-4,11.2c-1.3,1.2-2.6,2.4-4.1,3.2
				c-0.2,0.1-0.4,0.2-0.5,0.5c0.1,0.8,0.9,1.1,1.7,1.1c0.3,0,0.7-0.1,0.9-0.1c3.2-2.1,7.3-2,10.6-4.1c3.6-2.6,6.9-6.6,7.2-11.1
				c-0.1-3.5-1.7-6.8-2.4-10.2c-0.4-1.6,0.4-3.3,0.5-4.9c0.3-2.4,0.6-4.8,1.2-7.1c2-0.5,4.1-1,6.2-1.3C141,46,154.5,44.9,168,45
				c1.2-0.1,2.4-0.1,3.5-0.1c-3.3,1.2-6.3,2.8-8.8,5.2c-0.9,0.1-1.7,0.7-2.4,1.3c-0.4,0.4-0.9,0.8-1.3,1.2c-1.1,0.1-2.1,0.3-3.2,0.5
				c-4.2,1.3-8.1,3.4-11.9,5.6c-3.8,2.2-7.7,4.5-11.4,6.8c-0.9,1,0.7,1.6,1.7,1.6c0.2,0,0.4,0,0.5-0.1c3.5-0.6,7.2-0.5,10.5-1.7
				c-0.3,0.3-0.7,0.6-1,0.9c-4.5,5.3-11.4,7.9-16.3,12.8c-0.9,0.1-1.8,0.7-0.8,1.4c1.9,1.3,4.3,1.4,6.6,1.4c0.7,0,1.4,0,2,0
				c4.3,0,8.8-0.5,12.1-3.6c3.4-2.7,7.2-5.1,9.5-8.9c1.3-1.9,2.1-3.9,2.8-6c0.5,0,1,0,1.5,0c1,0,2-0.1,2.9-0.2
				c8.2-0.9,15.2-6.1,20.1-12.5c1.4-1.8,3.1-3.3,4.9-4.6c3.9,0.5,7.8,1.2,11.7,1.9c8.3,1.6,16.8,1.8,25.2,1.9c1.5,0,3,0.1,4.5,0.1
				c-1.6,1.2-3.3,2.2-5.2,2.8c-1.7,0.5-3.4,0.2-5.1,0.4c-1.6,0.4-3.1,0.1-4.7,0c-15.9,0.5-28.8,12.6-34.7,26.6
				c-1,0.5-1.4,1.6-0.2,1.6c0.1,0,0.3,0,0.4,0l0,0c5.3-2.6,11.2-4.8,15.8-8.6c3.4-2.6,5.4-6.5,8.1-9.7c2.6-2.9,6.2-5,9.6-6.6
				c3.9-1.9,8.4-1.7,12.4-3.4c1.9-0.9,3.8-1.8,5.5-3.1c0.4,0,0.8,0,1.2,0.1c-0.2,3.1-0.2,6.7-2.9,8.7c-0.5-0.5-1.3,0.1-1.8,0.3
				c-0.9,0.5-1.7,1-2.5,1.5c-4,1.3-7.2,4.3-10,7.3c-2,2.3-2.9,5.3-4.2,8c-0.6,1.2-0.9,2.5-1.8,3.4c-0.4,0.4-0.3,0.9,0.1,0.9
				c0.1,0,0.3-0.1,0.5-0.2c0.6-0.6,1.2-1.2,1.8-1.7c-0.2,0.3-0.6,0.6-0.7,0.9c2.6-1.8,5.4-2.9,8.1-4.4c2.8-1.8,5.4-4.2,6.6-7.3
				c0.9-2.7,1.6-5.5,3.4-7.7c2.1-1.1,4-2.9,4.7-5.2c0.5-1.4,0.8-3.1,0.4-4.6c4.2,0.2,8.3,0.6,12.5,0.8c9,0.6,17.9-0.9,26.3-4
				c3.4,0.1,6.7-1.6,9.5-3.5c1.7-0.1,3.1-1.4,4.6-2.3c2-1.2,3.8-2.7,5.5-4.4c1.3-1.1,2.5-2.3,3.5-3.7c2.5-3.5,4.3-7.6,5.2-11.9
				C303.9,16.6,304.1,11.9,303.1,7.3L303.1,7.3z M154.1,28.1c-3.2,0-6.3,0.4-9.4,1.3c-2.4,0.7-4.8,1.4-7.2,1.4l0.1,0
				c-5,0-9.8-1.3-14.7-2.4c4.3-0.3,8.6-1.3,13-1.3c0.5,0,1,0,1.4,0c7,0.2,14,0,20.9,1.2C156.9,28.2,155.5,28.1,154.1,28.1
				L154.1,28.1z M144.1,25.2c-1.6,0-3.1,0.1-4.7,0.2c3.5-1,6.9-1.5,10.1-1.5c5.4,0,10.4,1.6,15.1,5.8
				C158.3,26.4,151.2,25.2,144.1,25.2L144.1,25.2z M85.4,44.4c-3.8,2.1-7.9,3.2-12.1,3.8c-3.4,0.1-6.4-1.7-9.4-3.1
				c7.2,1,14.3-1.6,21.2-3.4c3.6-1.2,7.3-2.9,11.1-2.9c0.9,0,1.9,0.1,2.9,0.4C94.1,39.4,89.6,41.8,85.4,44.4L85.4,44.4z M96.8,37.9
				c-7.9,0-15.5,3.4-23,5.9c6.7-3.1,13.4-8,21-8.1c2.6,0.5,4.9,1.8,7.4,2.7C100.3,38.1,98.5,37.9,96.8,37.9z M60.1,61.4
				c1.5,0,3,0.2,4.5,0.8c-0.8,0-1.6-0.1-2.4-0.1c-0.1,0-0.2,0-0.4,0c-6.8,0.7-13.2,3.8-19,7.2C48,65.9,53.8,61.4,60.1,61.4
				L60.1,61.4z M37.6,76.1c-1.8,0.1-3.3,0-5-0.1c6.3-3,12.2-6.7,18.5-9.7c4.7-1.8,9.7-3.1,14.8-3.1c0.2,0,0.4,0,0.7,0
				C53.6,64.8,52.6,76.2,37.6,76.1z M8.3,118.3c10.9-9.6,7.6-21.1,22-24.6c-0.1,0.1-0.1,0.1-0.2,0.2c-3.4,1.6-5.8,3.6-7.7,7.3
				c-0.1,0.1-0.2,0.2-0.3,0.3c-1.6,1.9-2.4,4.3-3.8,6.3C15.5,111.8,12,115.2,8.3,118.3z M34,94.4c-4,4.1-6.3,9.5-9.9,13.9
				c-2.6,3.3-6.5,4.7-10,6.8c1.9-2.1,4-4.1,5.7-6.3c1.1-1.4,1.9-3,2.6-4.7c2.6-3.2,4.8-6.9,8.4-8.8c1.5-0.7,2.9-1.3,4.4-1.9
				C34.8,93.6,34.4,94,34,94.4L34,94.4z M26.9,125.1c1.7-2.7,4.3-4.5,6.8-6.4c-2.5,5.6-4.7,11.3-6.7,17.1c-1.3,2.4-2.5,4.9-3.7,7.4
				c-2.3,5.5-3.2,11.4-5.1,17C17.6,147.4,20,136,26.9,125.1z M25.9,149c-1.1,3.2-3,6.1-4.1,9.3c-1.4,4.2-2.1,8.6-3.9,12.7
				c1.6-7.6,2.6-15.6,6.4-22.6c2-4.1,3.5-8.5,5.2-12.7C27.9,140.1,27.1,144.7,25.9,149L25.9,149z M29.7,135.2c1-2.5,2.1-4.9,3.5-7.3
				C32.4,130.6,30.8,132.7,29.7,135.2z M44.7,108.1c0,0,0,0.1-0.1,0.1c-0.1,0.1-0.2,0.3-0.3,0.4C44.5,108.5,44.6,108.3,44.7,108.1z
				 M40.9,127.9c-0.8-6.8,0.6-13.9,4.9-19.4c-6.6,17.8-2.4,12.6-1.9,29.3c0.3,2.9,0.3,5.9-0.1,8.8C42.8,140.3,40.9,134.2,40.9,127.9
				L40.9,127.9z M47.7,123.6c1,4.5,1,9.2,1.5,13.8c-0.1,3-1,5.9-1.6,8.8c-1,4.5-2.2,9-4.7,12.9c0.9-2.6,2-5.1,2.6-7.7
				c1.1-5.1,0.9-10.5,0.4-15.6c-1.7-8.7-2.9-18.1,0.4-26.5c0,2.3,0.2,4.5,0.6,6.7C47.1,118.4,47.1,121,47.7,123.6L47.7,123.6z
				 M67.7,112c-0.3,2.6,0.4,5.1,0.3,7.7c-0.5,5.5-1.1,11-2.6,16.3c0.5-6.5-0.4-13.1,0.1-19.5c0.5-4.6,2.5-8.9,4.5-13
				C69,106.3,67.9,109,67.7,112L67.7,112z M67.4,105.1c-1.3,3.7-2.2,7.4-3.5,11.1c-0.7-11.5,2.2-13.3,8.2-22.2
				C70.6,97.7,68.8,101.3,67.4,105.1z M113.1,69.9c0.5-2.9,2.1-5.6,3.4-8.2c1,6.8-1.1,11.6-5.3,16.8
				C112.8,75.8,112.7,72.8,113.1,69.9z M112.8,82.7c-0.5,0.2-0.9,0.4-1.4,0.6c-0.5,0.2-1,0.5-1.6,0.7c5.8-4.3,7.7-11.4,9-18.2
				C120.7,72.8,120.3,79.6,112.8,82.7L112.8,82.7z M86.3,65.8c-0.4,0-0.7,0.1-1.1,0.1c3.2-1.6,6.3-3.1,9.3-4.6
				c0.1-0.1,0.3-0.1,0.4-0.2c0,0,0,0,0,0.1C92.5,63.3,89.7,65.2,86.3,65.8L86.3,65.8z M89.1,93.9c0.6-2.5,1.8-4.9,2.5-7.3
				c0.6-2.3,0.9-4.6,1.2-6.9c-0.2,2.2-0.1,4.4-0.2,6.5c-0.3,3.2-1.2,6.2-1.7,9.4c-0.6,4.4-2.9,8.2-4.4,12.3
				C88.1,103.4,88.1,98.6,89.1,93.9z M95.1,95.2c0.3,4-0.2,8.1-1.8,11.8c-1.6,3.8-4.9,6.5-7.8,9.3c1.5-5.3,4-10.2,5.2-15.6
				c1.6-4.3,3.1-8.6,3.4-13.1C94.9,90,95,92.6,95.1,95.2z M127.2,42.5c2.9-2.2,6.5-3.8,9.8-4.5c1.9-0.2,3.8,0.3,5.6,0.9
				c-1.3,0.2-2.5,0.5-3.8,0.8C134.9,40.6,131.1,41.5,127.2,42.5z M177,53.4c-3.5,1.7-7.3,2.9-11.1,3.3c-0.6,0.1-2.9,0.1-3.9,0.5
				c0.3-1,0.6-1.9,1-2.8c2-0.2,4-0.3,6-0.5c0.7,0,1.3,0,2,0c1.5,0,3,0.1,4.5-0.2C176.1,53.6,176.6,53.5,177,53.4L177,53.4L177,53.4z
				 M137.3,65.3C137.3,65.3,137.3,65.3,137.3,65.3C137.2,65.3,137.2,65.3,137.3,65.3C137.2,65.3,137.2,65.3,137.3,65.3z M138.1,65.4
				c1.7-0.6,3-1.9,4.7-2.6c2.2-1.2,4.8-1.2,7.1-2.1c-2.7-0.2-5.3,0.4-7.7,1.4c3.7-2.7,7.3-5.5,11.9-6.5c0.7-0.2,1.5-0.3,2.2-0.4
				c-3.5,3.4-7.2,6.6-10.8,9.9C143,65.5,140.6,65.6,138.1,65.4L138.1,65.4z M147.7,67.1c4.3-3.5,6.6-8.7,10.8-12.2
				c0.3,0,0.6-0.1,0.8-0.1c-2,3.3-4.7,5.9-7.2,8.8c-5,6.5-12,11.5-19.6,14.3C137.4,73.8,142.7,70.8,147.7,67.1L147.7,67.1z
				 M133,80.5c-1.6-0.1-3.1-0.4-4.6-0.9c4.8-1.1,9.8-1.9,14.1-4.6c4.4-2.8,8.3-6.5,11.7-10.4c2.5-3.2,4.1-7,6.9-10
				c0.1,0,0.2,0,0.2,0c-1.4,2.7-2,5.6-3.1,8.3C153,74.2,146,80.9,133,80.5L133,80.5z M162.3,62.2c-0.7,0.2-1.4,0.5-2.1,0.8
				c0.5-1.7,1-3.3,1.5-5c0,0,0.1,0,0.1,0c0,0,0,0,0,0c3.7-0.2,7.4-1,11-1.6c0.4-0.1,0.7-0.2,1.1-0.4c-1,0.8-2,1.7-3,2.4
				C168.4,60.4,165.4,61.4,162.3,62.2L162.3,62.2z M185.8,45.9c-1.9,1.4-3.7,2.9-5.4,4.4c-1.4,0.5-2.7,1-4.1,1.4
				c-3.7,1-7.3,0.7-11.1,0.6c-0.4,0-0.8,0-1.2,0c0-0.1,0.1-0.1,0.1-0.2c0.2-0.5,0.7-0.9,0.6-1.4c2.6-2.9,5.9-4.9,9.5-5.9
				c4,0,8,0.3,12,0.7C186.1,45.7,186,45.8,185.8,45.9L185.8,45.9z M196.9,41.6c2.7-1.4,5.7-2.1,8.7-1.1c0.9,0.4,1.8,0.9,2.7,1.4
				C204.4,41.7,200.7,41.6,196.9,41.6L196.9,41.6z M192.4,75c-2.2,1.4-4.8,2.3-7.3,3.1c3.3-3.5,5.7-7.7,9.3-10.9
				c4.1-3.1,8.6-5.5,13-8C201.5,63.6,198.2,70.7,192.4,75L192.4,75z M186.1,74.3c-0.3,0.4-0.7,0.8-1,1.2c0,0-0.1,0.1-0.1,0.1
				c1.5-2.4,2.8-5,4.6-7.2c2.5-2.7,5.3-5,8.2-7.2c4.6-3.4,9.8-6.1,15.6-6.5C201.7,58.4,193.7,65,186.1,74.3L186.1,74.3z M212.5,77.8
				c1.1-2.9,2.2-5.7,4.3-8c1.8-2.2,3.5-4.5,6-5.9c-1.6,1.9-2.2,4.4-3.2,6.7C218.1,73.7,215.2,75.8,212.5,77.8L212.5,77.8z
				 M226.7,66.5c-2.1,4.3-6.4,7.1-10.4,9.3c2-1.8,4.2-3.7,5.5-6.1c1.7-3,2.5-6.7,5.8-8.3c0.3-0.1,0.5-0.2,0.8-0.4
				C227.4,62.7,227.4,64.7,226.7,66.5z M188.6,25.3c-4.2-0.8-8.5-1.9-12.2-4c6,0.8,12,1.1,17.9,2.3c3.9,0.8,7.3,3,10.2,5.5
				c0.2,0.1,0.3,0.3,0.5,0.4C199.9,26.6,194.3,25.5,188.6,25.3z M205.7,28.7c-4.1-2.9-8.4-5.7-13.1-7.3c-3.8-1.2-7.8-0.8-11.8-1.1
				c1.8-0.2,3.5-0.4,5.3-0.4c2.5,0,5.1,0.4,7.5,1.4c3.7,1.3,7,3.2,10.1,5.5c2.8,1.9,5.6,3.9,7.8,6.4
				C209.3,31.9,207.6,30.1,205.7,28.7L205.7,28.7z"/>
		</g>
	</g>
</g>
</svg>
